<svg id="Camada_1" data-name="Camada 1" xmlns="http://www.w3.org/2000/svg" viewBox="0 0 424.67 173.96"><defs><style>.cls-1{fill:#f59b27;fill-rule:evenodd;}.cls-2{fill:#fff;}</style></defs><path id="logo" class="cls-1" d="M85.83,105.08C143.1-4.59,353.69,7.49,402.51,118.7c-21.32-64-86.27-94.47-157.32-100.15-55.85-4.46-143.55,29.72-159.36,86.53"/><path id="tipo" class="cls-2" d="M365.14,99.85c0,7.25-4.69,9.8-12.59,9.8S340,107.1,340,99.85s4.69-9.8,12.59-9.8,12.59,2.56,12.59,9.8m8.68,0c0-12.75-7.42-17.07-21.27-17.07s-21.27,4.32-21.27,17.07,7.42,17.08,21.27,17.08S373.82,112.61,373.82,99.85Zm-53.83,0c0,7.25-4.69,9.8-12.59,9.8H294.81V94.52c0-3.19,1.73-4.47,6.51-4.47h6.08C315.3,90.05,320,92.61,320,99.85Zm8.68,0c0-12.75-7.46-17.07-21.27-17.07h-6.08c-10.64,0-15.19,1.92-15.19,11.74v22.41H307.4C321.25,116.93,328.67,112.61,328.67,99.85Zm-54.27,2.57H249.22V99.86c0-7.24,4.69-9.81,12.59-9.81s12.59,2.57,12.59,9.81Zm8.69,14.51V99.86c0-12.76-7.43-17.08-21.28-17.08s-21.27,4.32-21.27,17.08v17.07h8.68V109.7H274.4v7.23ZM228,94.31c0,3.2-2.6,4.26-8.68,4.26h-15.2v-4c0-3.19,1.74-4.47,6.52-4.47h8.68C225.35,90.05,228,91.12,228,94.31Zm10,22.62v-6.61c0-4.18-1.22-6.91-3.43-8.67,1.39-1.71,2.12-4.1,2.12-7.34,0-9.82-6.72-11.53-17.36-11.53h-8.68c-10.64,0-15.2,1.92-15.2,11.74v22.41h8.68V105.84h16.5c6.08,0,8.68,1.28,8.68,4.48v6.61ZM183.67,99.85c0,7.25-4.69,9.8-12.59,9.8s-12.59-2.55-12.59-9.8,4.69-9.8,12.59-9.8S183.67,92.61,183.67,99.85Zm8.68,0c0-12.75-7.42-17.07-21.27-17.07S149.8,87.1,149.8,99.85s7.43,17.08,21.28,17.08S192.35,112.61,192.35,99.85Zm-53.83,0c0,7.25-4.69,9.8-12.59,9.8H113.34V94.52c0-3.19,1.73-4.47,6.51-4.47h6.08C133.83,90.05,138.52,92.61,138.52,99.85Zm8.68,0c0-12.75-7.47-17.07-21.27-17.07h-6.08c-10.64,0-15.2,1.92-15.2,11.74v22.41h21.28C139.78,116.93,147.2,112.61,147.2,99.85Zm-45.59,17.08v-7.28H79.47c-4.77,0-6.51-1.28-6.51-4.48V82.78H64.28v22.39c0,9.83,4.56,11.76,15.19,11.76Zm-40.37,0v-7.28H37.36c-4.51,0-6.51-.85-6.51-3.6v-.63h30V98.14h-30V94.52c0-3.19,1.74-4.47,6.51-4.47H61.24V82.78H37.36c-10.63,0-15.19,1.92-15.19,11.74v11.53c0,8.61,4.56,10.88,15.19,10.88Z"/><path class="cls-2" d="M27.25,151H25.34V135h1.91Z"/><path class="cls-2" d="M50,151H47.66L39.3,138.21a5.68,5.68,0,0,1-.52-1h-.07a16.49,16.49,0,0,1,.09,2.2V151H36.9V135h2.47l8.13,12.56c.34.52.56.88.66,1.07h.05a15.66,15.66,0,0,1-.12-2.35V135H50Z"/><path class="cls-2" d="M58.88,150.32v-2.21a4.2,4.2,0,0,0,.92.61,9.66,9.66,0,0,0,1.14.45,8.22,8.22,0,0,0,1.19.28,6.44,6.44,0,0,0,1.11.1,4.36,4.36,0,0,0,2.62-.64,2.16,2.16,0,0,0,.87-1.85,2.06,2.06,0,0,0-.29-1.12,3.14,3.14,0,0,0-.8-.88,7.51,7.51,0,0,0-1.2-.76l-1.5-.77c-.57-.28-1.1-.57-1.59-.86a6.79,6.79,0,0,1-1.28-1,4,4,0,0,1-.86-1.19,4,4,0,0,1,.18-3.46,4.07,4.07,0,0,1,1.28-1.33,5.8,5.8,0,0,1,1.81-.78,8.37,8.37,0,0,1,2.06-.26,8.06,8.06,0,0,1,3.51.57v2.11a6.46,6.46,0,0,0-3.7-1,5.81,5.81,0,0,0-1.24.13,3.41,3.41,0,0,0-1.11.41,2.61,2.61,0,0,0-.8.75,2,2,0,0,0-.3,1.12,2.21,2.21,0,0,0,.23,1.06,2.59,2.59,0,0,0,.68.82,7.36,7.36,0,0,0,1.11.71c.43.23.93.48,1.5.76s1.13.58,1.65.89a7.91,7.91,0,0,1,1.38,1,4.67,4.67,0,0,1,.93,1.26,3.51,3.51,0,0,1,.35,1.59,4,4,0,0,1-.47,2A3.88,3.88,0,0,1,67,150.27a5.68,5.68,0,0,1-1.84.74,10.45,10.45,0,0,1-2.2.23,9.09,9.09,0,0,1-1-.06c-.38,0-.77-.1-1.16-.18s-.76-.18-1.12-.29A3.31,3.31,0,0,1,58.88,150.32Z"/><path class="cls-2" d="M79.25,144.92V151h-1.9V135h4.46a6,6,0,0,1,4,1.25,4.41,4.41,0,0,1,1.43,3.53,4.82,4.82,0,0,1-1.59,3.73,6.12,6.12,0,0,1-4.3,1.45Zm0-8.26v6.56h2a4.44,4.44,0,0,0,3-.89,3.11,3.11,0,0,0,1-2.5c0-2.12-1.27-3.17-3.81-3.17Z"/><path class="cls-2" d="M97.63,151h-1.9V135h1.9Z"/><path class="cls-2" d="M118.93,151h-2.27l-2.72-4.49a10.72,10.72,0,0,0-.72-1.06,4.07,4.07,0,0,0-.72-.72,2.39,2.39,0,0,0-.79-.41,3.23,3.23,0,0,0-1-.13h-1.56V151h-1.91V135h4.85a7.22,7.22,0,0,1,2,.26,4.43,4.43,0,0,1,1.56.8,3.78,3.78,0,0,1,1,1.33,4.4,4.4,0,0,1,.37,1.87,4.48,4.48,0,0,1-.25,1.54,4.06,4.06,0,0,1-.73,1.24,4.32,4.32,0,0,1-1.13.94,6,6,0,0,1-1.49.59v.05a3.23,3.23,0,0,1,.71.41,3.59,3.59,0,0,1,.57.54,7.3,7.3,0,0,1,.54.71l.59.92Zm-9.74-14.31v5.8h2.58a4.06,4.06,0,0,0,1.32-.21,3.05,3.05,0,0,0,1-.61,2.85,2.85,0,0,0,.69-1,3.3,3.3,0,0,0,.25-1.29,2.49,2.49,0,0,0-.85-2,3.64,3.64,0,0,0-2.44-.72Z"/><path class="cls-2" d="M139.12,151H137l-1.72-4.49H128.4L126.78,151h-2.12l6.23-16h2Zm-4.45-6.17L132.12,138a5.49,5.49,0,0,1-.25-1.07h-.05a5.22,5.22,0,0,1-.26,1.07L129,144.8Z"/><path class="cls-2" d="M157.37,150.3a9.6,9.6,0,0,1-4.49.94,7.28,7.28,0,0,1-5.55-2.2,8,8,0,0,1-2.08-5.77,8.46,8.46,0,0,1,2.34-6.21,8,8,0,0,1,5.95-2.37,9.64,9.64,0,0,1,3.83.66v2a7.88,7.88,0,0,0-3.85-1,6,6,0,0,0-4.54,1.84,6.88,6.88,0,0,0-1.74,4.92,6.53,6.53,0,0,0,1.63,4.67,5.58,5.58,0,0,0,4.26,1.73,8.07,8.07,0,0,0,4.24-1.07Zm-2.31,3.53c0,1.31-1,2-3.12,2-.29,0-.53,0-.74,0v-1a6.85,6.85,0,0,0,.8.06c1.06,0,1.6-.33,1.6-1s-.49-.87-1.47-.87l-.46,0v-2h1.22v1.16a2.51,2.51,0,0,1,1.58.45A1.48,1.48,0,0,1,155.06,153.83Z"/><path class="cls-2" d="M178.63,151h-2.1l-1.73-4.49h-6.88L166.3,151h-2.12l6.23-16h2ZM175,130.84a3.09,3.09,0,0,1-.55,1.91,1.72,1.72,0,0,1-1.47.75,3.86,3.86,0,0,1-1.83-.58,3.26,3.26,0,0,0-1.35-.49c-.67,0-1,.43-1,1.27h-1.06a3.12,3.12,0,0,1,.54-1.92,1.79,1.79,0,0,1,1.52-.72,3.44,3.44,0,0,1,1.69.58,2.93,2.93,0,0,0,1.45.49c.63,0,.95-.43.95-1.29Zm-.82,14L171.63,138a7.54,7.54,0,0,1-.25-1.07h0a6,6,0,0,1-.26,1.07l-2.53,6.83Z"/><path class="cls-2" d="M192.54,151.24A7.18,7.18,0,0,1,187,149a8.26,8.26,0,0,1-2.08-5.84A8.75,8.75,0,0,1,187,137a7.47,7.47,0,0,1,5.77-2.3,7,7,0,0,1,5.42,2.23,8.3,8.3,0,0,1,2.06,5.84,8.79,8.79,0,0,1-2.11,6.2A7.32,7.32,0,0,1,192.54,151.24Zm.13-14.85a5.24,5.24,0,0,0-4.15,1.82,6.94,6.94,0,0,0-1.6,4.78,7,7,0,0,0,1.56,4.76,5.1,5.1,0,0,0,4.06,1.8,5.36,5.36,0,0,0,4.21-1.72,6.93,6.93,0,0,0,1.54-4.81,7.3,7.3,0,0,0-1.49-4.9A5.15,5.15,0,0,0,192.67,136.39Z"/><path class="cls-2" d="M230.71,144.92V151h-1.9V135h4.46a6,6,0,0,1,4,1.25,4.42,4.42,0,0,1,1.44,3.53,4.8,4.8,0,0,1-1.6,3.73,6.12,6.12,0,0,1-4.3,1.45Zm0-8.26v6.56h2a4.49,4.49,0,0,0,3-.89,3.1,3.1,0,0,0,1-2.5c0-2.12-1.27-3.17-3.8-3.17Z"/><path class="cls-2" d="M255.7,151h-8.61V135h8.25v1.7H249V142h5.87v1.69H249v5.6h6.7Z"/><path class="cls-2" d="M272.55,151h-8.43V135H266v14.31h6.53Z"/><path class="cls-2" d="M286.09,151.24a7.18,7.18,0,0,1-5.54-2.25,8.26,8.26,0,0,1-2.08-5.84,8.75,8.75,0,0,1,2.12-6.16,7.47,7.47,0,0,1,5.77-2.3,7,7,0,0,1,5.42,2.23,8.3,8.3,0,0,1,2.06,5.84,8.79,8.79,0,0,1-2.11,6.2A7.32,7.32,0,0,1,286.09,151.24Zm.13-14.85a5.24,5.24,0,0,0-4.15,1.82,6.94,6.94,0,0,0-1.6,4.78,7,7,0,0,0,1.56,4.76,5.1,5.1,0,0,0,4.06,1.8,5.36,5.36,0,0,0,4.21-1.72,6.93,6.93,0,0,0,1.54-4.81,7.3,7.3,0,0,0-1.49-4.9A5.15,5.15,0,0,0,286.22,136.39Z"/><path class="cls-2" d="M335.52,151h-2.33l-8.37-12.76a5.68,5.68,0,0,1-.52-1h-.06a16.49,16.49,0,0,1,.09,2.2V151h-1.91V135h2.47L333,147.52a11.6,11.6,0,0,1,.65,1.07h.05a16,16,0,0,1-.11-2.35V135h1.9Z"/><path class="cls-2" d="M351.69,151.24a7.18,7.18,0,0,1-5.54-2.25,8.26,8.26,0,0,1-2.08-5.84,8.75,8.75,0,0,1,2.12-6.16,7.47,7.47,0,0,1,5.77-2.3,7,7,0,0,1,5.42,2.23,8.3,8.3,0,0,1,2.06,5.84,8.79,8.79,0,0,1-2.11,6.2A7.32,7.32,0,0,1,351.69,151.24Zm.13-14.85a5.27,5.27,0,0,0-4.16,1.82,8,8,0,0,0,0,9.54,5.1,5.1,0,0,0,4.06,1.8,5.36,5.36,0,0,0,4.21-1.72,6.93,6.93,0,0,0,1.54-4.81,7.3,7.3,0,0,0-1.49-4.9A5.16,5.16,0,0,0,351.82,136.39Z"/><path class="cls-2" d="M380.16,135l-6,16h-2.09l-5.89-16h2.12l4.49,12.69a6.74,6.74,0,0,1,.33,1.42h0a7,7,0,0,1,.37-1.44L378.11,135Z"/><path class="cls-2" d="M394.13,151.24a7.18,7.18,0,0,1-5.54-2.25,8.26,8.26,0,0,1-2.08-5.84,8.75,8.75,0,0,1,2.12-6.16,7.46,7.46,0,0,1,5.77-2.3,7,7,0,0,1,5.42,2.23,8.29,8.29,0,0,1,2.05,5.84,8.79,8.79,0,0,1-2.1,6.2A7.32,7.32,0,0,1,394.13,151.24Zm.13-14.85a5.26,5.26,0,0,0-4.16,1.82,7,7,0,0,0-1.59,4.78,7.06,7.06,0,0,0,1.55,4.76,5.13,5.13,0,0,0,4.07,1.8,5.36,5.36,0,0,0,4.21-1.72,6.93,6.93,0,0,0,1.54-4.81,7.25,7.25,0,0,0-1.5-4.9A5.13,5.13,0,0,0,394.26,136.39Z"/></svg>